<svg xmlns="http://www.w3.org/2000/svg" version="1.1" xmlns:xlink="http://www.w3.org/1999/xlink" xmlns:svgjs="http://svgjs.dev/svgjs" width="2000" height="1506" viewBox="0 0 2000 1506"><g transform="matrix(1,0,0,1,1.3578574691910035,0.6097225270466424)"><svg viewBox="0 0 328 247" data-background-color="#ffffff" preserveAspectRatio="xMidYMid meet" height="1506" width="2000" xmlns="http://www.w3.org/2000/svg" xmlns:xlink="http://www.w3.org/1999/xlink"><defs></defs><g id="tight-bounds" transform="matrix(1,0,0,1,-0.2226886249473239,-0.09999943135801459)"><svg viewBox="0 0 328.44537724989465 247.2" height="247.2" width="328.44537724989465"><g><svg viewBox="0 0 397.4975999999999 299.1712276261958" height="247.2" width="328.44537724989465"><g><rect width="397.4975999999999" height="5.458183439040668" x="0" y="159.96662251347036" fill="#010c80" opacity="1" stroke-width="0" stroke="transparent" fill-opacity="1" class="rect-o-0" data-fill-palette-color="primary" rx="1%" id="o-0" data-palette-color="#010c80"></rect></g><g><rect width="397.4975999999999" height="5.458183439040668" x="0" y="172.56902511355904" fill="#010c80" opacity="1" stroke-width="0" stroke="transparent" fill-opacity="1" class="rect-o-1" data-fill-palette-color="primary" rx="1%" id="o-1" data-palette-color="#010c80"></rect></g><g transform="matrix(1,0,0,1,0.9887999999999693,192.31564687469572)"><svg viewBox="0 0 395.52 106.8555807515001" height="106.8555807515001" width="395.52"><g><svg viewBox="0 0 395.52 106.8555807515001" height="106.8555807515001" width="395.52"><g><svg viewBox="0 0 395.52 60.52473916067702" height="60.52473916067702" width="395.52"><g transform="matrix(1,0,0,1,0,0)"><svg width="395.52" viewBox="2.200000047683716 -33 215.63999938964844 33" height="60.52473916067702" data-palette-color="#010c80"><path d="M17.75 0L2.2 0 2.2-0.8 6.45-2.85 6.45-30.15 2.2-32.2 2.2-33 19.3-33Q24.55-33 27.58-30.83 30.6-28.65 30.6-24.85L30.6-24.85Q30.6-22.1 28.75-20.13 26.9-18.15 23.9-17L23.9-17 33.15-2.8 36.75-0.8 36.75 0 25.9 0 16.65-15.3 14-15.3 14-2.9 17.75-0.8 17.75 0ZM16-30.25L16-30.25 14-30.25 14-17.75 16.3-17.75Q19.4-17.75 21.2-19.5 23-21.25 23-24.05L23-24.05Q23-27 21.23-28.63 19.45-30.25 16-30.25ZM54.7 0L38.65 0 38.65-0.8 42.9-2.85 42.9-30.15 38.65-32.2 38.65-33 54.7-33 54.7-32.2 50.45-30.15 50.45-2.85 54.7-0.8 54.7 0ZM76.09 0L59.2 0 59.2-0.8 63.45-2.85 63.45-30.15 59.2-32.2 59.2-33 76.5-33Q82.4-33 85.97-30.88 89.55-28.75 89.55-24.1L89.55-24.1Q89.55-21.3 87.67-19.18 85.8-17.05 82.59-15.88 79.4-14.7 75.3-14.7L75.3-14.7 71-14.7 71-2.85 76.09-0.8 76.09 0ZM73.09-30.25L71-30.25 71-17.15 73.4-17.15Q77.4-17.15 79.65-19 81.9-20.85 81.9-23.65L81.9-23.65Q81.9-27.15 79.59-28.7 77.3-30.25 73.09-30.25L73.09-30.25ZM117.79 0L99.64 0 99.64-0.8 104.94-2.85 104.94-30.25 97.79-30.25 93.79-22 92.99-22 92.99-33 124.44-33 124.44-22 123.64-22 119.64-30.25 112.49-30.25 112.49-2.85 117.79-0.8 117.79 0ZM144.59 0L128.54 0 128.54-0.8 132.79-2.85 132.79-30.15 128.54-32.2 128.54-33 144.59-33 144.59-32.2 140.34-30.15 140.34-2.85 144.59-0.8 144.59 0ZM165.79 0L149.09 0 149.09-0.8 153.34-2.85 153.34-30.15 149.09-32.2 149.09-33 166.14-33Q172.09-33 176.24-31.05 180.39-29.1 182.56-25.7 184.74-22.3 184.74-18L184.74-18Q184.74-14.1 183.31-10.8 181.89-7.5 179.34-5.1 176.79-2.7 173.34-1.35 169.89 0 165.79 0L165.79 0ZM164.09-30.25L164.09-30.25 160.89-30.25 160.89-2.75 164.79-2.75Q170.59-2.75 173.74-6.48 176.89-10.2 176.89-16.45L176.89-16.45Q176.89-22.75 173.66-26.5 170.44-30.25 164.09-30.25ZM217.84 0L189.19 0 189.19-0.8 193.44-2.85 193.44-30.15 189.19-32.2 189.19-33 216.44-33 216.44-24.35 215.64-24.35 211.94-30.25 200.99-30.25 200.99-18.4 208.69-18.4 211.49-22.7 212.29-22.7 212.29-11.45 211.49-11.45 208.69-15.65 200.99-15.65 200.99-2.75 213.14-2.75 217.04-10.2 217.84-10.2 217.84 0Z" opacity="1" transform="matrix(1,0,0,1,0,0)" fill="#010c80" class="undefined-text-0" data-fill-palette-color="primary" id="text-0"></path></svg></g></svg></g><g transform="matrix(1,0,0,1,75.54432,74.81317748277301)"><svg viewBox="0 0 244.43135999999998 32.04240326872708" height="32.04240326872708" width="244.43135999999998"><g transform="matrix(1,0,0,1,0,0)"><svg width="244.43135999999998" viewBox="0.2800000011920929 -37.5 381.760009765625 50.04999923706055" height="32.04240326872708" data-palette-color="#77d4fc"><path d="M22.93-13.83L22.93-8.95 8.08-8.95 8.08-13.83 22.93-13.83ZM25.23 0L14.75-29.68 16.25-29.68 5.78 0 0.28 0 12.78-35 18.23-35 30.73 0 25.23 0ZM59.97 0L46.17 0 46.17-35 58.15-35Q63-35 65.58-32.86 68.17-30.73 68.17-26.5L68.17-26.5Q68.17-23.5 66.84-21.35 65.52-19.2 62.87-18.4L62.87-18.4 63.3-19.38Q67.17-18.65 69.2-16.3 71.22-13.95 71.22-9.98L71.22-9.98Q71.22-5.33 68.22-2.66 65.22 0 59.97 0L59.97 0ZM51.62-15.9L51.62-4.9 59.35-4.9Q62.12-4.9 63.78-6.19 65.45-7.48 65.45-10.35L65.45-10.35Q65.45-13.48 63.73-14.69 62.02-15.9 59.35-15.9L59.35-15.9 51.62-15.9ZM51.62-30.13L51.62-20.8 57.4-20.8Q59.85-20.8 61.26-21.79 62.67-22.78 62.67-25.45L62.67-25.45Q62.67-28.15 61.26-29.14 59.85-30.13 57.4-30.13L57.4-30.13 51.62-30.13ZM84.89 0.5L84.89 0.5Q81.57 0.5 79.42-0.83 77.27-2.15 76.22-4.67 75.17-7.2 75.17-10.8L75.17-10.8 75.17-24.7 80.39-24.7 80.39-11.53Q80.39-7.8 81.66-5.9 82.92-4 85.79-4L85.79-4Q87.87-4 89.48-5 91.09-6 91.87-8.05L91.87-8.05 91.02-5.3 91.02-24.7 96.24-24.7 96.24 0 91.49 0 90.84-4.6 92.09-3.4Q91.02-1.6 89.18-0.55 87.34 0.5 84.89 0.5ZM112.11 12.55L112.11 12.55Q108.71 12.55 106.09 11.7 103.46 10.85 101.98 9.24 100.49 7.63 100.49 5.3L100.49 5.3Q100.49 3.35 101.59 1.91 102.69 0.48 104.66-0.5L104.66-0.5Q103.56-1.1 102.95-1.94 102.34-2.78 102.34-3.8L102.34-3.8Q102.34-4.95 103.03-5.85 103.71-6.75 105.09-7.33L105.09-7.33Q103.09-8.63 102.04-10.78 100.99-12.93 100.99-15.5L100.99-15.5Q100.99-18.18 102.18-20.39 103.36-22.6 105.63-23.9 107.89-25.2 111.11-25.2L111.11-25.2Q112.81-25.2 114.3-24.74 115.79-24.28 116.99-23.45L116.99-23.45Q117.97-24 119.45-24.39 120.94-24.78 122.77-24.78L122.77-24.78Q123.02-24.78 123.24-24.78 123.47-24.78 123.69-24.78L123.69-24.78 123.19-21.4Q122.79-21.4 122.39-21.4 121.99-21.4 121.59-21.4L121.59-21.4Q121.34-21.4 120.66-21.35 119.99-21.3 119.36-21.18L119.36-21.18Q120.29-19.98 120.77-18.53 121.24-17.07 121.24-15.5L121.24-15.5Q121.24-12.73 120.05-10.5 118.86-8.28 116.6-6.95 114.34-5.63 111.11-5.63L111.11-5.63Q110.31-5.63 109.55-5.74 108.79-5.85 108.09-6.03L108.09-6.03Q107.19-5.73 107.19-4.95L107.19-4.95Q107.19-4.35 107.91-3.96 108.64-3.58 110.22-3.33L110.22-3.33 115.81-2.5Q119.81-1.9 122.03-0.2 124.24 1.5 124.24 4.65L124.24 4.65Q124.24 7.18 122.78 8.94 121.31 10.7 118.59 11.63 115.86 12.55 112.11 12.55ZM112.47 8.25L112.47 8.25Q115.79 8.25 117.54 7.41 119.29 6.58 119.29 4.9L119.29 4.9Q119.29 3.5 118.14 2.78 116.99 2.05 114.69 1.65L114.69 1.65 108.34 0.65Q107.04 1.2 106.1 2.14 105.16 3.08 105.16 4.42L105.16 4.42Q105.16 6.4 107.13 7.33 109.09 8.25 112.47 8.25ZM111.11-9.65L111.11-9.65Q113.72-9.65 115.05-11.26 116.39-12.88 116.39-15.48L116.39-15.48Q116.39-18.03 115.05-19.61 113.72-21.2 111.11-21.2L111.11-21.2Q108.52-21.2 107.18-19.61 105.84-18.03 105.84-15.48L105.84-15.48Q105.84-12.88 107.18-11.26 108.52-9.65 111.11-9.65ZM151.74 0L146.28 0 146.28-29.9 136.21-29.9 136.21-35 161.81-35 161.81-29.9 151.74-29.9 151.74 0ZM166.63 0L161.23 0 161.23-24.7 165.83-24.7 166.21-21.25Q167.71-23.05 169.42-24.13 171.13-25.2 173.13-25.2L173.13-25.2Q173.73-25.2 174.26-25.08L174.26-25.08 173.81-19.65Q173.38-19.75 172.94-19.8 172.51-19.85 172.03-19.85L172.03-19.85Q170.23-19.85 168.75-19.04 167.26-18.23 166.63-17.2L166.63-17.2 166.63 0ZM182.58 0.5L182.58 0.5Q180.43 0.5 178.75-0.41 177.08-1.33 176.12-2.95 175.16-4.58 175.16-6.78L175.16-6.78Q175.16-8.88 176.1-10.36 177.06-11.85 178.63-12.85 180.21-13.85 182.09-14.44 183.98-15.03 185.93-15.3 187.88-15.58 189.56-15.6L189.56-15.6Q189.53-18.53 188.31-19.56 187.08-20.6 184.58-20.6L184.58-20.6Q183.08-20.6 181.5-20.16 179.93-19.73 177.96-18.53L177.96-18.53 177.35-22.78Q179.16-23.88 181.38-24.53 183.6-25.18 185.98-25.18L185.98-25.18Q188.96-25.18 190.91-24.13 192.85-23.08 193.83-20.65 194.81-18.23 194.81-14.15L194.81-14.15 194.81-8.4Q194.81-6.6 194.97-5.59 195.13-4.58 195.68-4.15 196.23-3.73 197.36-3.73L197.36-3.73 197.96-3.73 197.31 0.5 196.16 0.5Q194.31 0.5 193.17 0.1 192.03-0.3 191.33-1.04 190.63-1.78 190.16-2.8L190.16-2.8Q188.83-1.3 186.87-0.4 184.91 0.5 182.58 0.5ZM184.18-3.6L184.18-3.6Q185.58-3.6 187.07-4.3 188.56-5 189.58-6.25L189.58-6.25 189.58-12.05Q186.78-11.93 184.77-11.39 182.75-10.85 181.67-9.78 180.58-8.7 180.58-7.03L180.58-7.03Q180.58-5.23 181.53-4.41 182.48-3.6 184.18-3.6ZM212.78 0.5L212.78 0.5Q208.58 0.5 205.72-1.23 202.85-2.95 201.4-5.84 199.95-8.72 199.95-12.25L199.95-12.25Q199.95-15.88 201.38-18.81 202.8-21.75 205.7-23.48 208.6-25.2 213.08-25.2L213.08-25.2Q215.08-25.2 216.78-24.79 218.48-24.38 219.78-23.7L219.78-23.7 219.15-19.3Q217.88-19.93 216.38-20.31 214.88-20.7 213.28-20.7L213.28-20.7Q209.4-20.7 207.34-18.45 205.28-16.2 205.28-12.38L205.28-12.38Q205.28-8.65 207.3-6.3 209.33-3.95 213.2-3.95L213.2-3.95Q214.8-3.95 216.31-4.36 217.83-4.78 219.2-5.5L219.2-5.5 219.78-1.2Q218.65-0.5 216.77 0 214.88 0.5 212.78 0.5ZM229.28 0L224.05 0 224.05-37.5 229.28-37.5 229.28-14 237.75-24.7 243.9-24.7 234.43-13.05 244.13 0 237.97 0 229.28-11.88 229.28 0ZM258.1 0.5L258.1 0.5Q253.67 0.5 250.7-1.29 247.72-3.08 246.21-6.04 244.7-9 244.7-12.53L244.7-12.53Q244.7-15.95 246.11-18.82 247.52-21.7 250.24-23.44 252.95-25.18 256.8-25.18L256.8-25.18Q260.07-25.18 262.47-23.85 264.87-22.53 266.16-20.15 267.45-17.78 267.45-14.6L267.45-14.6Q267.45-13.95 267.39-13.25 267.32-12.55 267.17-11.78L267.17-11.78 250.1-11.78Q250.42-8.85 251.65-7.14 252.87-5.43 254.7-4.7 256.52-3.98 258.65-3.98L258.65-3.98Q260.55-3.98 262.4-4.41 264.25-4.85 265.87-5.68L265.87-5.68 266.35-1.4Q264.92-0.73 262.85-0.11 260.77 0.5 258.1 0.5ZM250.4-15.35L250.4-15.35 262.1-15.35Q262.1-16.82 261.55-18.04 261-19.25 259.81-19.98 258.62-20.7 256.75-20.7L256.75-20.7Q254-20.7 252.49-19.25 250.97-17.8 250.4-15.35ZM277.27 0L271.87 0 271.87-24.7 276.47-24.7 276.85-21.25Q278.35-23.05 280.06-24.13 281.77-25.2 283.77-25.2L283.77-25.2Q284.37-25.2 284.9-25.08L284.9-25.08 284.45-19.65Q284.02-19.75 283.58-19.8 283.15-19.85 282.67-19.85L282.67-19.85Q280.87-19.85 279.38-19.04 277.9-18.23 277.27-17.2L277.27-17.2 277.27 0ZM319.17-13.83L319.17-8.95 304.32-8.95 304.32-13.83 319.17-13.83ZM321.47 0L310.99-29.68 312.49-29.68 302.02 0 296.52 0 309.02-35 314.47-35 326.97 0 321.47 0ZM335.44 12.1L330.21 12.1 330.21-24.7 334.36-24.7 335.34-19.73 333.84-20.53Q335.44-22.65 337.61-23.91 339.79-25.18 342.94-25.18L342.94-25.18Q346.41-25.18 348.86-23.44 351.31-21.7 352.59-18.79 353.86-15.88 353.86-12.33L353.86-12.33Q353.86-8.8 352.63-5.89 351.39-2.98 348.96-1.24 346.54 0.5 342.94 0.5L342.94 0.5Q340.01 0.5 337.88-0.54 335.74-1.58 334.34-3.73L334.34-3.73 335.44-4.75 335.44 12.1ZM342.04-3.98L342.04-3.98Q345.09-3.98 346.8-6.23 348.51-8.47 348.51-12.33L348.51-12.33Q348.51-16.2 346.8-18.45 345.09-20.7 342.04-20.7L342.04-20.7Q339.96-20.7 338.43-19.73 336.89-18.75 336.03-16.89 335.16-15.03 335.16-12.33L335.16-12.33Q335.16-9.58 336.03-7.73 336.89-5.88 338.43-4.93 339.96-3.98 342.04-3.98ZM363.61 12.1L358.39 12.1 358.39-24.7 362.54-24.7 363.51-19.73 362.01-20.53Q363.61-22.65 365.79-23.91 367.96-25.18 371.11-25.18L371.11-25.18Q374.59-25.18 377.04-23.44 379.49-21.7 380.76-18.79 382.04-15.88 382.04-12.33L382.04-12.33Q382.04-8.8 380.8-5.89 379.56-2.98 377.14-1.24 374.71 0.5 371.11 0.5L371.11 0.5Q368.19 0.5 366.05-0.54 363.91-1.58 362.51-3.73L362.51-3.73 363.61-4.75 363.61 12.1ZM370.21-3.98L370.21-3.98Q373.26-3.98 374.97-6.23 376.69-8.47 376.69-12.33L376.69-12.33Q376.69-16.2 374.97-18.45 373.26-20.7 370.21-20.7L370.21-20.7Q368.14-20.7 366.6-19.73 365.06-18.75 364.2-16.89 363.34-15.03 363.34-12.33L363.34-12.33Q363.34-9.58 364.2-7.73 365.06-5.88 366.6-4.93 368.14-3.98 370.21-3.98Z" opacity="1" transform="matrix(1,0,0,1,0,0)" fill="#77d4fc" class="undefined-text-1" data-fill-palette-color="secondary" id="text-1"></path></svg></g></svg></g></svg></g></svg></g><g transform="matrix(1,0,0,1,76.53311999999995,0)"><svg viewBox="0 0 244.43136 145.67818419137436" height="145.67818419137436" width="244.43136"><g><svg xmlns="http://www.w3.org/2000/svg" xmlns:xlink="http://www.w3.org/1999/xlink" version="1.0" x="0" y="0" viewBox="-2.384185791015625e-7 20.200000762939453 100.00199890136719 59.60000228881836" enable-background="new 0 0 100 100" xml:space="preserve" width="244.43136" height="145.67818419137436" class="icon-icon-0" data-fill-palette-color="accent" id="icon-0"><g fill="#00ffef" data-fill-palette-color="accent"><path fill="#00ffef" d="M73.959 79.8c-13.607 0-24.956-11.188-25.432-11.664-0.102-0.104-10.624-10.449-22.485-10.449-11.902 0-22.378 10.344-22.486 10.449-0.812 0.812-2.13 0.812-2.944 0-0.816-0.814-0.816-2.132 0-2.948 0.476-0.476 11.825-11.67 25.43-11.67 13.607 0 24.955 11.194 25.432 11.67 0.102 0.104 10.624 10.447 22.486 10.447 11.859 0 22.382-10.344 22.488-10.447 0.816-0.812 2.134-0.812 2.942 0.006 0.816 0.812 0.816 2.128 0 2.942C98.912 68.612 87.563 79.8 73.959 79.8z" data-fill-palette-color="accent"></path><path fill="#00ffef" d="M73.959 63.147c-13.607 0-24.956-11.194-25.432-11.67-0.102-0.102-10.624-10.445-22.485-10.445-11.902 0-22.378 10.343-22.486 10.445-0.812 0.814-2.13 0.814-2.944 0-0.816-0.816-0.816-2.132 0-2.944 0.476-0.476 11.825-11.668 25.43-11.668 13.607 0 24.955 11.192 25.432 11.668 0.102 0.1 10.624 10.447 22.486 10.447 11.859 0 22.382-10.348 22.488-10.447 0.816-0.812 2.134-0.812 2.942 0.002 0.816 0.816 0.816 2.126 0 2.942C98.912 51.953 87.563 63.147 73.959 63.147z" data-fill-palette-color="accent"></path><path fill="#00ffef" d="M73.959 46.482c-13.607 0-24.956-11.194-25.432-11.67-0.102-0.104-10.624-10.447-22.485-10.447-11.902 0-22.378 10.343-22.486 10.447-0.812 0.812-2.13 0.812-2.944 0-0.816-0.816-0.816-2.134 0-2.948C1.088 31.388 12.437 20.2 26.042 20.2c13.607 0 24.955 11.188 25.432 11.664 0.102 0.104 10.624 10.449 22.486 10.449 11.859 0 22.382-10.346 22.488-10.449 0.816-0.812 2.134-0.81 2.942 0.006 0.816 0.812 0.816 2.126 0 2.942C98.912 35.288 87.563 46.482 73.959 46.482z" data-fill-palette-color="accent"></path></g></svg></g></svg></g><g></g></svg></g></svg><rect width="328.44537724989465" height="247.2" fill="none" stroke="none" visibility="hidden"></rect></g></svg></g></svg>